<?xml version="1.0" encoding="UTF-8" standalone="no"?>
<svg width="60px" height="60px" viewBox="0 0 60 60" version="1.1" xmlns="http://www.w3.org/2000/svg" xmlns:xlink="http://www.w3.org/1999/xlink" xmlns:sketch="http://www.bohemiancoding.com/sketch/ns">
    <!-- Generator: Sketch 3.2.2 (9983) - http://www.bohemiancoding.com/sketch -->
    <title>Handblood</title>
    <desc>Created with Sketch.</desc>
    <defs></defs>
    <g id="stroked" stroke="none" stroke-width="1" fill="none" fill-rule="evenodd" sketch:type="MSPage">
        <g id="Medical" sketch:type="MSLayerGroup" transform="translate(-860.000000, -957.000000)" stroke-linecap="round" stroke="#535353" stroke-width="2">
            <g id="Handblood" transform="translate(858.000000, 952.000000)" sketch:type="MSShapeGroup">
                <path d="M14.2493866,38.6438992 C12.4116646,28.5382521 11.5262294,15.9808536 11.5262293,14.3836238 C11.5262293,12.7863941 13.7766688,11.3688094 15.3179185,16.7856783 C16.8591682,22.2025472 16.6448558,25.8660611 18.1475234,25.8660612 C19.6501911,25.8660613 17.4604929,8.74658201 19.1364413,7.32380545 C20.8123897,5.90102888 21.6287039,6.59816235 22.3604082,9.5916952 C23.0921125,12.5852281 24.5597951,23.8863553 25.6834113,24.9228915 C26.8070275,25.9594278 27.1432247,19.6977543 27.1432238,16.7856777 C27.1432229,13.8736011 26.6741473,2.74661874 28.3500961,1.49693755 C30.0260449,0.247256365 32.1363216,2.13198958 32.1363219,4.09441695 C32.1363221,6.05684431 31.4968255,26.1999593 32.9548187,26.1999595 C34.412812,26.1999597 35.2989195,7.83358833 36.801587,7.83358851 C38.3042546,7.83358869 40.0864076,7.80449018 40.0864094,12.4156175 C40.0864111,17.0267447 39.3980399,26.8636385 39.39804,28.5382512 C39.3980401,30.212864 40.0864093,35.5614209 40.0864093,35.5614209 C40.0864093,35.5614209 49.8023203,29.380315 52.203881,29.3803145 C54.6054416,29.380314 55.1185135,31.2735037 53.6611979,32.7417602 C52.2038824,34.2100167 43.9876119,41.5898675 42.7868312,44.5528554 C41.5860505,47.5158434 39.0668316,54.7609886 29.1016363,55.7744522 C19.1364411,56.7879159 16.0871087,48.7495463 14.2493866,38.6438992 Z" id="Path-665" transform="translate(33.000000, 28.477717) rotate(-75.000000) translate(-33.000000, -28.477717) "></path>
                <path d="M44.5,30.5 L35.5,42.5" id="Line"></path>
                <path d="M49.5,30.5 L40.5,42.5" id="Line"></path>
                <path d="M37.5,31.5 L51.5,39.5" id="Line"></path>
                <path d="M35.5,34.5 L49.5,42.5" id="Line"></path>
                <path d="M18.5,62 C20.9852814,62 23,60.0300529 23,57.6 C23,55.1699471 18.5,51 18.5,51 C18.5,51 14,55.1699471 14,57.6 C14,60.0300529 16.0147186,62 18.5,62 Z" id="Oval-309"></path>
                <path d="M31,61 C32.6568542,61 34,59.7463973 34,58.2 C34,56.6536027 31,54 31,54 C31,54 28,56.6536027 28,58.2 C28,59.7463973 29.3431458,61 31,61 Z" id="Oval-309"></path>
            </g>
        </g>
    </g>
</svg>