<?xml version="1.0" encoding="iso-8859-1"?>
<!DOCTYPE svg PUBLIC "-//W3C//DTD SVG 1.1//EN" "http://www.w3.org/Graphics/SVG/1.1/DTD/svg11.dtd">
<svg 
 version="1.1" xmlns="http://www.w3.org/2000/svg" xmlns:xlink="http://www.w3.org/1999/xlink" x="0px" y="0px" width="512px"
	 height="512px" viewBox="0 0 512 512" style="enable-background:new 0 0 512 512;" xml:space="preserve"
><g id="afcae5a789ccd549f9c6e2a2f819a975"><g></g><path style="display: inline;" d="M249.142,399.514l150.374-150.372l82.152-82.152c2.928-2.173,5.136-5.339,7.78-7.986
		c32.856-32.854,28.224-90.75-8.737-127.713c-36.961-36.957-94.856-41.59-127.708-8.735c-2.646,2.645-5.822,4.844-7.993,7.774
		l-82.156,82.152L112.48,262.856l-82.147,82.147c-2.928,2.179-5.136,5.34-7.781,7.988c-32.856,32.856-28.224,90.752,8.737,127.713
		c36.961,36.961,94.856,41.594,127.717,8.741c2.645-2.653,5.813-4.849,7.984-7.78L249.142,399.514z M365.512,43.011
		c1.168-1.029,2.628-2.308,4.133-3.809c23.222-23.224,66.462-19.223,94.42,8.735c27.962,27.96,31.963,71.201,8.741,94.422
		c-1.493,1.495-2.766,2.944-3.788,4.104c-0.541,0.62-1.269,1.447-1.635,1.817l-1.131,0.836l-1.227,1.229l-82.156,82.154
		l-66.861,66.86L212.634,195.991l66.862-66.863l82.156-82.152l1.223-1.225l0.832-1.119
		C364.072,44.267,364.896,43.548,365.512,43.011z M372.926,68.493l0.645-0.875c0.184-0.158,0.366-0.316,0.541-0.468
		c1.663-1.459,3.293-2.925,4.832-4.464c17.508-17.503,52.294-13.42,74.45,8.737c2.836,2.838,5.369,5.884,7.602,9.074
		c-21.711-15.239-50.114-16.399-65.376-1.138c-1.539,1.537-3.169,3.005-4.832,4.464c-0.179,0.154-0.362,0.312-0.541,0.47
		l-0.648,0.874l-27.813,27.812l0.079,0.075l-32.856,32.858l-16.751-16.752l32.856-32.857L372.926,68.493z"></path></g></svg>